<svg xmlns="http://www.w3.org/2000/svg" viewBox="0 0 256 256"><path fill="#fff" stroke="#111" stroke-linecap="round" stroke-linejoin="round" stroke-width="10" d="M80.963 78.842a1977 1977 0 0 1 18.842-30.294c4.154-6.549 8.234-13.158 12.688-19.5 7.402-10.537 30.37-10.545 36.406 5.377 1.244 3.281 1.964 6.958 2.01 10.464.219 16.818.122 33.64.149 50.46 0 .321.136.64.213.977 13.28 4.21 26.62 8.244 39.824 12.68 12.988 4.364 16.216 20.055 10.683 29.576-8.155 14.032-16.904 27.72-25.429 41.536a13466 13466 0 0 1-22.724 36.68c-2.285 3.676-4.508 7.402-7.003 10.933-5.415 7.662-13.39 9.37-21.927 8.117-7.685-1.13-13.578-5.29-15.787-13.281-.815-2.95-1.793-5.991-1.824-9-.173-17.304-.084-34.61-.084-51.76-13.594-4.323-27.017-8.152-40.117-12.878-13.584-4.901-16.34-20.44-10.152-31.073 7.64-13.126 16.088-25.782 24.232-39.014" paint-order="stroke fill"/></svg>